#!OML:ASF F:\VICON\USERDATA\INSTALL\rory3\rory3.ASF
:FULLY-SPECIFIED
:DEGREES
1044
root 1.96698 18.903 -4.34152 -3.60054 -10.9016 1.62961
lowerback 5.85773 1.36457 -2.95261
upperback 0.694158 1.60076 -0.874595
thorax -2.6241 0.822334 0.626471
lowerneck -6.83339 -2.34882 -5.86287
upperneck 23.8853 -4.28266 7.94485
head 8.84175 -1.78224 3.2915
rclavicle 2.02885e-014 3.37934e-015
rhumerus -31.1671 38.3461 -96.613
rradius 93.3266
rwrist -9.63959
rhand -43.6589 10.262
rfingers 7.12502
rthumb -16.4928 -19.057
lclavicle 2.02885e-014 3.37934e-015
lhumerus -30.0339 -30.4627 94.0542
lradius 105.772
lwrist 0.568941
lhand -11.7153 19.9665
lfingers 7.12502
lthumb 14.3313 49.4519
rfemur 5.17988 19.976 16.9441
rtibia 11.1968
rfoot -12.1066 -20.5212
rtoes -7.16448
lfemur 0 0 0
ltibia 0
lfoot 0 0
ltoes 0
1045
root 1.96744 18.9042 -4.34398 -3.58494 -10.9268 1.61988
lowerback 5.83118 1.36722 -2.95461
upperback 0.702047 1.60597 -0.854802
thorax -2.60191 0.824743 0.648302
lowerneck -6.75354 -2.34589 -5.8906
upperneck 23.8208 -4.26755 7.92087
head 8.80341 -1.78218 3.28882
rclavicle -1.32689e-014 7.35503e-015
rhumerus -31.0863 38.2558 -96.4856
rradius 93.2932
rwrist -9.55991
rhand -43.5357 11.0652
rfingers 7.12502
rthumb -16.3742 -18.2636
lclavicle -1.32689e-014 7.35503e-015
lhumerus -30.0101 -30.1144 93.9729
lradius 105.739
lwrist -0.149763
lhand -12.4441 20.0796
lfingers 7.12502
lthumb 13.629 49.6134
rfemur 5.14258 20.0012 16.9524
rtibia 11.2218
rfoot -12.0664 -20.5721
rtoes -7.24791
lfemur 0 0 0
ltibia 0
lfoot 0 0
ltoes 0
1046
root 1.96852 18.9044 -4.34396 -3.56368 -10.9243 1.61547
lowerback 5.80137 1.36801 -2.93532
upperback 0.681492 1.60915 -0.849579
thorax -2.60616 0.826417 0.643029
lowerneck -6.60041 -2.33166 -5.93552
upperneck 23.722 -4.24867 7.95494
head 8.74064 -1.77817 3.30946
rclavicle 6.06293e-015 3.18055e-015
rhumerus -31.142 38.1756 -96.454
rradius 93.3068
rwrist -9.29062
rhand -43.5067 11.5499
rfingers 7.12502
rthumb -16.3462 -17.7812
lclavicle 6.06293e-015 3.18055e-015
lhumerus -30.0353 -29.7978 93.8972
lradius 105.699
lwrist -0.948903
lhand -13.1129 20.2414
lfingers 7.12502
lthumb 12.9843 49.8174
rfemur 5.11555 19.9791 16.9465
rtibia 11.2486
rfoot -12.008 -20.607
rtoes -7.43144
lfemur 0 0 0
ltibia 0
lfoot 0 0
ltoes 0
1047
root 1.96949 18.9036 -4.34512 -3.55604 -10.9415 1.63586
lowerback 5.81274 1.37503 -2.94738
upperback 0.640605 1.61649 -0.845768
thorax -2.65539 0.83112 0.652151
lowerneck -6.39895 -2.30269 -6.01376
upperneck 23.5929 -4.21577 8.03811
head 8.6589 -1.76716 3.35389
rclavicle 2.54879e-014 -9.14409e-015
rhumerus -31.2861 38.1703 -96.4849
rradius 93.3191
rwrist -8.83561
rhand -43.6901 11.5591
rfingers 7.12502
rthumb -16.5228 -17.7574
lclavicle 2.54879e-014 -9.14409e-015
lhumerus -30.082 -29.487 93.823
lradius 105.662
lwrist -1.7654
lhand -13.6295 20.4175
lfingers 7.12502
lthumb 12.4863 50.0244
rfemur 5.10929 19.9616 16.9078
rtibia 11.2529
rfoot -12.0268 -20.5634
rtoes -7.41417
lfemur 0 0 0
ltibia 0
lfoot 0 0
ltoes 0
1048
root 1.9692 18.9036 -4.34794 -3.55039 -10.9353 1.58626
lowerback 5.81543 1.37372 -2.89935
upperback 0.642962 1.61821 -0.831417
thorax -2.6536 0.831515 0.639887
lowerneck -6.33844 -2.29043 -6.02154
upperneck 23.5378 -4.20508 8.07573
head 8.62863 -1.761 3.36861
rclavicle -1.17718e-014 -8.74653e-015
rhumerus -31.3104 38.1451 -96.4704
rradius 93.2837
rwrist -8.36337
rhand -43.8061 11.4109
rfingers 7.12502
rthumb -16.6345 -17.8963
lclavicle -1.17718e-014 -8.74653e-015
lhumerus -30.0259 -29.2201 93.6831
lradius 105.651
lwrist -2.40152
lhand -13.9 20.5019
lfingers 7.12502
lthumb 12.2255 50.1246
rfemur 5.11504 19.9665 16.9639
rtibia 11.2686
rfoot -12.1373 -20.5479
rtoes -7.25083
lfemur 0 0 0
ltibia 0
lfoot 0 0
ltoes 0
